<?xml version="1.0" standalone="no"?>
<!DOCTYPE svg PUBLIC "-//W3C//DTD SVG 20010904//EN"
 "http://www.w3.org/TR/2001/REC-SVG-20010904/DTD/svg10.dtd">
<svg version="1.0" xmlns="http://www.w3.org/2000/svg"
 width="700px" height="700px" viewBox="0 0 500.000000 500.000000"
 preserveAspectRatio="xMidYMid meet">

<g transform="translate(0.000000,500.000000) scale(0.100000,-0.100000)"
fill="#000000" stroke="none">
<path d="M2513 4333 c-6 -16 -28 -75 -51 -133 -22 -58 -43 -115 -47 -128 -10
-35 3 -77 41 -124 18 -24 34 -53 34 -65 0 -13 -2 -23 -4 -23 -2 0 -32 13 -67
30 -150 69 -277 63 -498 -24 -75 -30 -154 -59 -176 -65 -43 -12 -146 -14 -182
-5 -21 6 -21 8 -8 27 22 32 18 74 -10 102 -45 46 -115 24 -131 -40 -6 -26 16
-72 43 -88 8 -5 13 -27 13 -58 l0 -51 -30 7 -30 7 0 -94 0 -95 -126 -302 c-69
-167 -123 -309 -120 -317 3 -8 10 -14 16 -14 5 0 10 -11 10 -24 0 -54 8 -56
299 -56 254 0 269 1 286 20 10 11 15 28 12 40 -3 13 0 20 9 20 8 0 17 6 19 13
3 6 -50 143 -117 302 l-121 290 -6 105 -6 105 -32 -3 c-32 -3 -33 -3 -33 39 0
38 2 41 23 35 123 -35 211 -31 395 21 157 44 264 53 348 28 63 -18 144 -61
144 -76 0 -14 -118 -11 -242 7 -184 26 -316 8 -375 -51 -27 -27 -33 -41 -33
-74 0 -90 101 -127 163 -60 30 33 35 73 12 106 -36 51 -116 31 -114 -30 0 -30
1 -30 11 -10 14 29 34 35 49 17 29 -35 -33 -71 -65 -39 -39 39 -8 96 64 115
47 13 77 8 220 -31 120 -34 238 -46 291 -31 l37 10 6 -40 c9 -57 65 -113 104
-104 37 9 70 49 84 101 11 42 12 42 42 34 59 -17 134 -9 292 31 178 46 223 46
274 4 17 -15 30 -36 30 -48 0 -25 -28 -56 -51 -56 -32 0 -54 52 -26 62 20 8
37 -3 37 -23 0 -11 5 -17 10 -14 18 11 11 53 -12 69 -30 21 -50 20 -82 -5 -36
-29 -36 -86 0 -123 62 -61 164 -19 164 67 0 36 -35 82 -76 102 -72 34 -170 41
-322 22 -166 -21 -255 -22 -250 -4 3 6 35 28 73 47 66 34 71 35 179 34 94 0
127 -5 216 -32 178 -54 320 -63 413 -27 14 6 17 1 17 -34 0 -29 -4 -41 -14
-41 -8 0 -18 5 -21 10 -16 26 -25 -9 -25 -94 l0 -94 -126 -302 c-69 -166 -123
-308 -120 -316 3 -8 10 -14 16 -14 5 0 10 -11 10 -24 0 -54 8 -56 299 -56 254
0 269 1 286 20 10 11 15 28 12 40 -3 13 0 20 9 20 8 0 17 6 19 13 3 6 -50 143
-117 302 l-121 290 -6 105 -6 105 -32 -3 c-33 -3 -33 -3 -33 39 0 35 6 49 32
76 22 23 31 41 30 64 -2 70 -84 105 -130 56 -26 -28 -30 -88 -6 -108 14 -12
14 -14 -3 -20 -31 -13 -156 -9 -203 5 -25 8 -102 37 -173 65 -228 92 -359 91
-549 -7 -18 -9 -6 49 16 75 58 71 60 118 10 240 -20 49 -43 109 -51 136 -16
54 -26 59 -40 20z m32 -549 c41 -16 59 -118 30 -173 -20 -40 -51 -46 -81 -16
-20 20 -24 34 -24 85 0 51 4 65 25 85 27 28 27 28 50 19z m-1075 -534 l0 -320
-136 0 c-105 0 -135 3 -131 13 3 6 57 138 121 291 64 153 116 292 116 307 0
19 5 29 15 29 13 0 15 -42 15 -320z m71 274 c4 -30 213 -550 236 -586 2 -5
-59 -8 -136 -8 l-141 0 0 313 c0 173 3 317 7 321 14 14 28 -2 34 -40z m2009
-274 l0 -320 -136 0 c-105 0 -135 3 -131 13 3 6 57 138 121 291 64 153 116
292 116 307 0 19 5 29 15 29 13 0 15 -42 15 -320z m71 274 c4 -30 213 -550
236 -586 2 -5 -59 -8 -136 -8 l-141 0 0 313 c0 173 3 317 7 321 14 14 28 -2
34 -40z"/>
<path d="M1975 3593 c0 -65 -31 -107 -96 -130 -27 -10 -49 -21 -49 -25 0 -12
1348 -10 1355 2 3 6 -2 10 -11 10 -33 0 -99 39 -117 69 -9 16 -17 49 -17 75 0
25 -3 46 -7 46 -5 0 -61 -14 -127 -30 -76 -19 -144 -30 -190 -30 l-71 0 -27
-49 c-31 -56 -82 -86 -129 -76 -40 9 -89 51 -105 92 l-14 33 -74 0 c-50 0
-113 10 -191 30 -64 17 -119 30 -123 30 -4 0 -7 -21 -7 -47z"/>
<path d="M1835 3377 c-47 -35 -18 -37 670 -37 457 0 676 3 680 10 4 6 1 17 -5
25 -18 21 -1316 22 -1345 2z"/>
<path d="M1840 3280 c-24 -24 -25 -39 -6 -66 14 -18 33 -19 671 -19 638 0 657
1 671 19 19 27 18 42 -6 66 -20 20 -33 20 -665 20 -632 0 -645 0 -665 -20z"/>
<path d="M1988 2711 c-2 -242 -1 -449 2 -460 5 -20 7 -19 53 10 l47 31 0 429
0 429 -50 0 -50 0 -2 -439z"/>
<path d="M2172 2750 c3 -220 8 -403 10 -406 3 -3 23 2 45 11 l40 16 6 256 c4
141 7 316 7 390 l0 133 -56 0 -57 0 5 -400z"/>
<path d="M2358 3143 c-2 -5 -2 -174 0 -376 l3 -369 42 7 c23 4 45 9 50 12 4 2
7 168 7 369 l0 364 -49 0 c-28 0 -51 -3 -53 -7z"/>
<path d="M2540 2789 l0 -361 48 7 c26 4 48 8 48 8 1 1 3 160 5 352 l4 350 -52
3 -53 3 0 -362z"/>
<path d="M2727 3142 c-7 -11 5 -662 12 -662 3 0 24 11 46 23 l40 23 3 312 2
312 -49 0 c-28 0 -52 -3 -54 -8z"/>
<path d="M2910 2876 c0 -305 -2 -299 62 -223 l35 42 4 225 4 225 -52 3 -53 3
0 -275z"/>
<path d="M3191 2766 c-69 -110 -201 -227 -325 -287 -78 -38 -136 -53 -321 -84
-128 -20 -290 -75 -382 -127 -65 -37 -148 -109 -188 -163 -13 -19 -14 -17 -15
25 0 25 5 62 11 83 6 21 8 44 6 50 -8 21 -117 -101 -144 -160 -27 -58 -41
-168 -29 -216 6 -24 7 -24 117 50 137 91 333 188 499 247 157 55 307 120 480
209 163 83 159 74 -10 -23 -156 -89 -320 -169 -425 -206 -185 -66 -473 -227
-724 -407 -99 -71 -111 -82 -88 -85 18 -2 47 11 94 42 74 50 89 54 133 31 79
-41 278 -67 369 -49 32 7 31 7 -35 35 -105 44 -108 55 -16 51 155 -7 271 34
441 154 61 43 146 98 189 121 63 35 72 43 49 43 -36 0 -117 20 -117 29 0 4 15
13 34 19 93 34 242 155 308 250 71 103 122 262 116 361 l-3 46 -24 -39z"/>
</g>
</svg>
